HIERARCHY
ROOT Hips
{
	OFFSET 0.000000 0.000000 0.000000
	CHANNELS 6 Xposition Yposition Zposition Zrotation Yrotation Xrotation 
	JOINT LHipJoint
	{
		OFFSET 0.000000 0.000000 0.000000
		CHANNELS 3 Zrotation Yrotation Xrotation
		JOINT LeftUpLeg
		{
			OFFSET 1.363060 -1.794630 0.839290
			CHANNELS 3 Zrotation Yrotation Xrotation
			JOINT LeftLeg
			{
				OFFSET 2.448110 -6.726130 0.000000
				CHANNELS 3 Zrotation Yrotation Xrotation
				JOINT LeftFoot
				{
					OFFSET 2.562200 -7.039590 0.000000
					CHANNELS 3 Zrotation Yrotation Xrotation
					JOINT LeftToeBase
					{
						OFFSET 0.157640 -0.433110 2.322550
						CHANNELS 3 Zrotation Yrotation Xrotation
						End Site
						{
							OFFSET 0.000000 0.000000 0.000000
						}
					}
				}
			}
		}
	}
	JOINT RHipJoint
	{
		OFFSET 0.000000 0.000000 0.000000
		CHANNELS 3 Zrotation Yrotation Xrotation
		JOINT RightUpLeg
		{
			OFFSET -1.305520 -1.794630 0.839290
			CHANNELS 3 Zrotation Yrotation Xrotation
			JOINT RightLeg
			{
				OFFSET -2.542530 -6.985550 0.000000
				CHANNELS 3 Zrotation Yrotation Xrotation
				JOINT RightFoot
				{
					OFFSET -2.568260 -7.056230 0.000000
					CHANNELS 3 Zrotation Yrotation Xrotation
					JOINT RightToeBase
					{
						OFFSET -0.164730 -0.452590 2.363150
						CHANNELS 3 Zrotation Yrotation Xrotation
						End Site
						{
							OFFSET 0.000000 0.000000 0.000000
						}
					}
				}
			}
		}
	}
	JOINT LowerBack
	{
		OFFSET 0.000000 0.000000 0.000000
		CHANNELS 3 Zrotation Yrotation Xrotation
		JOINT Spine
		{
			OFFSET 0.028270 2.035590 -0.193380
			CHANNELS 3 Zrotation Yrotation Xrotation
			JOINT Spine1
			{
				OFFSET 0.056720 2.048850 -0.042750
				CHANNELS 3 Zrotation Yrotation Xrotation
				JOINT Neck
				{
					OFFSET 0.000000 0.000000 0.000000
					CHANNELS 3 Zrotation Yrotation Xrotation
					JOINT Neck1
					{
						OFFSET -0.054170 1.746240 0.172020
						CHANNELS 3 Zrotation Yrotation Xrotation
						JOINT Head
						{
							OFFSET 0.104070 1.761360 -0.123970
							CHANNELS 3 Zrotation Yrotation Xrotation
							End Site
							{
								OFFSET 0.000000 0.000000 0.000000
							}
						}
					}
				}
				JOINT LeftShoulder
				{
					OFFSET 0.000000 0.000000 0.000000
					CHANNELS 3 Zrotation Yrotation Xrotation
					JOINT LeftArm
					{
						OFFSET 3.362410 1.200890 -0.311210
						CHANNELS 3 Zrotation Yrotation Xrotation
						JOINT LeftForeArm
						{
							OFFSET 4.983000 -0.000000 -0.000000
							CHANNELS 3 Zrotation Yrotation Xrotation
							JOINT LeftHand
							{
								OFFSET 3.483560 -0.000000 -0.000000
								CHANNELS 3 Zrotation Yrotation Xrotation
								JOINT LeftFingerBase
								{
									OFFSET 0.000000 0.000000 0.000000
									CHANNELS 3 Zrotation Yrotation Xrotation
									JOINT LeftHandIndex1
									{
										OFFSET 0.715260 -0.000000 -0.000000
										CHANNELS 3 Zrotation Yrotation Xrotation
										End Site
										{
											OFFSET 0.000000 0.000000 0.000000
										}
									}
								}
								JOINT LThumb
								{
									OFFSET 0.000000 0.000000 0.000000
									CHANNELS 3 Zrotation Yrotation Xrotation
									End Site
									{
										OFFSET 0.000000 0.000000 0.000000
									}
								}
							}
						}
					}
				}
				JOINT RightShoulder
				{
					OFFSET 0.000000 0.000000 0.000000
					CHANNELS 3 Zrotation Yrotation Xrotation
					JOINT RightArm
					{
						OFFSET -3.136600 1.374050 -0.404650
						CHANNELS 3 Zrotation Yrotation Xrotation
						JOINT RightForeArm
						{
							OFFSET -5.241900 -0.000000 -0.000000
							CHANNELS 3 Zrotation Yrotation Xrotation
							JOINT RightHand
							{
								OFFSET -3.444170 -0.000000 -0.000000
								CHANNELS 3 Zrotation Yrotation Xrotation
								JOINT RightFingerBase
								{
									OFFSET 0.000000 0.000000 0.000000
									CHANNELS 3 Zrotation Yrotation Xrotation
									JOINT RightHandIndex1
									{
										OFFSET -0.622530 -0.000000 -0.000000
										CHANNELS 3 Zrotation Yrotation Xrotation
										End Site
										{
											OFFSET 0.000000 0.000000 0.000000
										}
									}
								}
								JOINT RThumb
								{
									OFFSET 0.000000 0.000000 0.000000
									CHANNELS 3 Zrotation Yrotation Xrotation
									End Site
									{
										OFFSET 0.000000 0.000000 0.000000
									}
								}
							}
						}
					}
				}
			}
		}
	}
}
MOTION
Frames: 4
Frame Time: 0.008333
14.555542 16.769650 1.471337 33.493558 -88.602302 4.673688 -8.479589 -0.507306 3.159639 -4.566056 -10.997132 -48.196014 -1.719364 -0.461504 25.049817 4.003514 13.160946 -23.735546 -3.613399 0.000000 -47.466099 7.958778 1.170213 2.831337 5.130967 10.143954 -49.226976 1.976381 -0.401821 30.046788 -3.982972 -8.774662 -25.876440 2.862700 0.000000 -52.456399 1.225157 -2.397410 -3.076634 -0.083931 -2.557887 -3.430456 -4.670494 -2.644182 0.976362 8.702597 -19.978765 -13.644800 0.201693 0.150416 -1.899566 0.000000 0.000000 0.000000 8.472698 11.104060 1.551550 -56.738274 31.752737 39.715111 -0.811857 -72.779400 -0.005634 8.363998 -0.484479 -0.040162 -0.209991 0.071875 -0.000000 0.000000 0.000000 0.000000 0.000000 0.000000 0.000000 2.872030 -15.909747 3.098948 69.455648 -21.817213 17.419250 1.657038 57.493364 0.008610 -8.419072 8.498069 -0.651630 0.195335 -0.155768 0.000000 0.000000 0.000000 0.000000 0.000000 0.000000 0.000000 
14.547825 16.661566 1.470573 38.570134 -88.290143 0.905143 -8.268152 -0.529653 3.248494 -4.583358 -11.867413 -50.915420 -1.737152 -0.273974 27.715593 4.107183 12.867639 -25.203563 -3.923501 0.000000 -47.270900 8.056320 1.351722 2.903551 4.458397 10.275214 -52.344568 1.887378 -0.785521 33.331361 -3.983476 -8.346658 -27.082898 2.990900 -0.000000 -52.073000 1.031474 -2.539302 -3.124046 -0.103787 -2.686504 -3.455788 -4.598339 -2.778620 0.927179 8.768141 -20.054624 -13.876559 0.283521 0.164402 -1.991771 0.000000 0.000000 0.000000 8.573371 11.233782 1.642787 -57.385982 33.399492 38.527875 -0.804471 -73.208520 -0.006398 8.509713 -0.570486 -0.047960 -0.213667 0.078200 -0.000000 0.000000 0.000000 0.000000 0.000000 0.000000 0.000000 2.772625 -15.981717 3.215243 69.709748 -23.275186 16.631458 1.619173 57.908011 0.008805 -8.324591 8.704345 -0.659859 0.192845 -0.158092 0.000000 0.000000 0.000000 0.000000 0.000000 0.000000 0.000000 
14.539696 16.539465 1.470124 42.980297 -87.947566 -2.159202 -8.090364 -0.551189 3.357874 -4.591643 -12.733313 -53.808974 -1.738669 -0.055830 30.566901 4.202746 12.551777 -26.618348 -4.199600 0.000001 -47.005400 8.138891 1.527253 3.000434 3.752475 10.364495 -55.557565 1.788842 -1.174217 36.655042 -3.972491 -7.906779 -28.242028 3.090000 0.000000 -51.571900 0.822061 -2.678776 -3.229557 -0.127867 -2.814038 -3.494586 -4.523719 -2.912630 0.876969 8.822208 -20.078639 -14.094315 0.353353 0.177050 -2.079930 0.000000 0.000000 0.000000 8.644200 11.337646 1.739201 -58.105540 34.931963 37.266968 -0.796050 -73.589992 -0.007244 8.748364 -0.720408 -0.061652 -0.218502 0.085835 -0.000000 0.000000 0.000000 0.000000 0.000000 0.000000 0.000000 2.694872 -16.004749 3.328189 69.985165 -24.684780 15.783844 1.584564 58.246485 0.009013 -8.224695 8.932568 -0.668986 0.190175 -0.160667 0.000000 0.000000 0.000000 0.000000 0.000000 0.000000 0.000000 
14.530742 16.403118 1.470379 46.684044 -87.591507 -4.481965 -7.945054 -0.571865 3.490920 -4.571795 -13.592694 -56.867009 -1.716915 0.191414 33.585533 4.290926 12.235646 -27.955187 -4.439700 -0.000001 -46.645500 8.208807 1.698910 3.125903 3.022241 10.427369 -58.855920 1.675770 -1.564236 40.008151 -3.959025 -7.490443 -29.353448 3.169900 0.000000 -50.921400 0.610262 -2.809345 -3.400815 -0.154024 -2.935072 -3.548608 -4.448208 -3.040945 0.827608 8.864507 -20.045316 -14.297272 0.408331 0.188009 -2.163398 0.000000 0.000000 0.000000 8.691212 11.405120 1.841589 -58.933461 36.340535 35.896424 -0.788515 -73.886380 -0.008161 9.088062 -0.953799 -0.083834 -0.224481 0.094937 -0.000000 0.000000 0.000000 0.000000 0.000000 0.000000 0.000000 2.645490 -15.972040 3.438978 70.294231 -26.029048 14.847162 1.556348 58.465853 0.009256 -8.115423 9.178949 -0.678316 0.187385 -0.163385 0.000000 0.000000 0.000000 0.000000 0.000000 0.000000 0.000000 
